<svg viewBox="0 0 340 191" fill="none" xmlns="http://www.w3.org/2000/svg">
    <rect width="340" height="191" fill="#1A3A4A"/>
    <circle cx="265.332" cy="183.332" r="35.3323" fill="#235973"/>
    <path d="M290.015 181.011H289.057H279.377H273.771H262.365V187.411H275.448H279.377H280.24H290.734H291.693L290.015 181.011Z" fill="#E64415"/>
    <path d="M291.693 187.41H262.365V258.385H277.7V196.841L293.753 258.385H310.19L291.693 187.41Z" fill="#8DD5FF"/>
    <path d="M300.606 151.417L295.383 161.715L283.738 146.846C283.193 146.174 282.507 145.631 281.728 145.256C280.949 144.882 280.097 144.685 279.234 144.681H262.941C262.184 144.674 261.433 144.819 260.733 145.107C260.032 145.395 259.396 145.82 258.86 146.358C258.325 146.895 257.902 147.534 257.615 148.238C257.328 148.941 257.184 149.695 257.19 150.455V176.632C257.184 177.209 257.292 177.781 257.509 178.315C257.726 178.849 258.047 179.334 258.453 179.742C258.859 180.15 259.343 180.473 259.875 180.69C260.407 180.908 260.977 181.017 261.551 181.01H290.016L285.08 162.004L293.131 172.253C293.515 172.745 294.024 173.126 294.605 173.355C295.185 173.583 295.816 173.652 296.431 173.554C297.047 173.456 297.625 173.194 298.107 172.796C298.588 172.398 298.955 171.878 299.169 171.291L306.644 151.417H300.606Z" fill="#E64415"/>
    <path d="M289.488 144.489L281.534 165.709C281.472 165.868 281.449 166.039 281.467 166.208C281.486 166.377 281.544 166.54 281.638 166.681C281.732 166.823 281.859 166.94 282.008 167.022C282.156 167.104 282.322 167.149 282.492 167.152H299.072C299.578 167.158 300.073 167.01 300.493 166.726C300.912 166.442 301.236 166.037 301.42 165.565L309.375 144.296C309.427 144.134 309.441 143.961 309.415 143.793C309.39 143.624 309.326 143.464 309.229 143.324C309.131 143.184 309.003 143.069 308.854 142.987C308.705 142.905 308.539 142.859 308.369 142.853H291.788C291.285 142.86 290.796 143.021 290.386 143.313C289.975 143.605 289.662 144.015 289.488 144.489V144.489Z" fill="#8DD5FF"/>
    <path d="M306.021 148.819H306.356C306.832 148.821 307.3 148.939 307.721 149.16C308.142 149.382 308.503 149.702 308.776 150.093C309.048 150.485 309.223 150.936 309.286 151.409C309.348 151.882 309.297 152.364 309.136 152.813V152.813C308.902 153.456 308.479 154.012 307.922 154.408C307.366 154.803 306.703 155.019 306.021 155.026V155.026C305.522 155.025 305.03 154.903 304.588 154.671C304.145 154.44 303.765 154.104 303.478 153.694C303.192 153.284 303.008 152.81 302.942 152.314C302.875 151.817 302.929 151.311 303.098 150.84V150.84C303.328 150.248 303.729 149.739 304.25 149.379C304.772 149.019 305.388 148.823 306.021 148.819V148.819Z" fill="#AD5100"/>
    <path d="M299.408 152.649C300.291 151.808 300.386 150.469 299.621 149.659C298.856 148.85 297.52 148.876 296.637 149.717C295.754 150.559 295.658 151.897 296.423 152.707C297.188 153.516 298.525 153.49 299.408 152.649Z" fill="#0070B2"/>
    <path d="M282.396 160.897C281.869 160.899 281.347 161.007 280.862 161.214C280.377 161.42 279.937 161.721 279.569 162.1L274.633 167.249H281.629C282.498 167.224 283.33 166.891 283.979 166.31C284.628 165.729 285.051 164.937 285.175 164.073C285.23 163.675 285.2 163.271 285.085 162.886C284.97 162.502 284.774 162.147 284.51 161.846C284.246 161.544 283.921 161.303 283.556 161.14C283.191 160.976 282.796 160.893 282.396 160.897V160.897Z" fill="#AD5100"/>
    <path d="M262.365 181.011C263.931 180.757 265.402 180.093 266.63 179.086C266.63 179.086 264.953 182.454 262.413 183.08L262.365 181.011Z" fill="black"/>
    <path d="M251.149 137.255L252.289 136.694C252.628 136.529 252.907 136.265 253.092 135.937C253.277 135.61 253.357 135.233 253.323 134.859L252.914 130.336C252.815 129.223 253.055 128.105 253.603 127.131C254.152 126.157 254.982 125.371 255.986 124.878V124.878C257.33 124.218 258.88 124.119 260.297 124.603C261.714 125.086 262.881 126.113 263.541 127.457L263.987 128.364L262.796 128.948L261.028 127.301C260.775 127.067 260.456 126.916 260.115 126.867C259.774 126.818 259.425 126.873 259.116 127.026V127.026C258.687 127.237 258.331 127.573 258.096 127.99C257.861 128.406 257.758 128.885 257.8 129.361L258.327 135.198C258.411 136.143 258.207 137.091 257.742 137.918C257.276 138.745 256.572 139.411 255.72 139.83C255.257 140.057 254.744 140.169 254.228 140.154C253.712 140.139 253.207 139.999 252.756 139.746C252.306 139.492 251.925 139.133 251.645 138.699C251.364 138.265 251.194 137.769 251.149 137.255V137.255Z" fill="black"/>
    <path d="M260.366 137.663L259.77 131.042C259.642 129.611 259.95 128.175 260.654 126.923C261.359 125.672 262.426 124.662 263.715 124.029L270.808 120.545C275.323 118.328 280.658 121.311 281.13 126.321C281.256 127.606 280.987 128.898 280.359 130.025C279.731 131.153 278.773 132.062 277.615 132.631L272.746 135.022L272.983 137.421L273.032 140.045L268.518 142.244C264.946 143.998 260.722 141.631 260.366 137.663Z" fill="black"/>
    <path d="M268.841 146.391L268.182 137.157L273.6 135.455L274.226 145.893C274.259 146.247 274.222 146.603 274.117 146.942C274.011 147.281 273.841 147.597 273.614 147.87C273.387 148.143 273.108 148.369 272.794 148.534C272.48 148.7 272.137 148.802 271.783 148.834C271.429 148.867 271.073 148.83 270.734 148.725C270.395 148.62 270.079 148.449 269.806 148.222C269.533 147.995 269.307 147.717 269.142 147.403C268.976 147.089 268.874 146.745 268.841 146.391Z" fill="#AD5100"/>
    <path d="M264.333 127.797L266.38 131.964L265.48 132.406C264.931 132.676 264.512 133.152 264.314 133.731C264.117 134.31 264.157 134.943 264.427 135.492L264.799 136.25C265.069 136.799 265.545 137.218 266.124 137.416C266.703 137.613 267.336 137.573 267.885 137.303L268.183 137.157L268.261 137.98C268.292 138.327 268.386 138.665 268.54 138.978L268.547 138.974C269.021 140.004 269.832 140.842 270.845 141.35C271.859 141.858 273.015 142.005 274.124 141.768L274.343 141.713C275.522 141.403 276.554 140.688 277.258 139.694C277.963 138.7 278.296 137.49 278.199 136.275L277.556 127.909C277.323 124.857 274.084 123.008 271.342 124.355L264.333 127.797Z" fill="#AD5100"/>
    <path d="M274.122 121.706L274.853 123.194C275.093 123.682 275.234 124.212 275.268 124.754C275.303 125.296 275.231 125.84 275.055 126.354C274.88 126.868 274.605 127.343 274.246 127.75C273.887 128.158 273.451 128.492 272.964 128.731L262.993 133.628L261.482 127.579L274.122 121.706Z" fill="black"/>
    <path d="M273.76 141.833L274.124 141.768L274.158 144.352C272.627 143.653 271.525 142.35 270.636 141.239C271.583 141.777 272.681 141.986 273.76 141.833Z" fill="black"/>
    <circle cx="114.332" cy="27.3323" r="35.3323" fill="#235973"/>
    <path d="M119.984 26.8394H95.1987C93.2478 26.8394 91.3768 27.6144 89.9973 28.9939C88.6178 30.3734 87.8428 32.2444 87.8428 34.1953V54.8106H127.34V34.1953C127.34 32.2444 126.565 30.3734 125.185 28.9939C123.806 27.6144 121.935 26.8394 119.984 26.8394Z" fill="#E64415"/>
    <path d="M106.725 35.1092V35.0858L106.748 35.0624L131.978 24.4033V30.705L106.725 35.1092Z" fill="#4A4A4A"/>
    <path d="M81.4707 30.705V24.3799L106.724 35.0624V35.0858V35.1092L81.4707 30.705Z" fill="#4A4A4A"/>
    <path d="M106.725 35.1088L131.978 30.7046V35.1088H106.748H106.725Z" fill="#AFAFAF"/>
    <path d="M106.748 35.1089H131.978V55.6774V66.3598H106.748H106.725V35.1089H106.748Z" fill="#CDCDCD"/>
    <path d="M81.4707 30.7046L106.724 35.1088H81.4707V30.7046Z" fill="#6F6F6F"/>
    <path d="M106.724 35.1089V66.3598H81.4707V35.1089H106.724Z" fill="#AFAFAF"/>
    <path d="M109.676 37.9907H123.779V45.4872H109.676V37.9907Z" fill="#AFAFAF"/>
    <path d="M84.2586 36.772H103.867V39.7471H84.2586V36.772Z" fill="#6F6F6F"/>
    <path d="M125.325 37.9907H129.354V38.6631H125.325V37.9907Z" fill="#AFAFAF"/>
    <path d="M125.325 39.396H129.354V40.0683H125.325V39.396Z" fill="#AFAFAF"/>
    <path d="M125.325 40.8018H129.354V41.4741H125.325V40.8018Z" fill="#AFAFAF"/>
    <path d="M120.406 49.4458H129.354V50.1181H120.406V49.4458Z" fill="#AFAFAF"/>
    <path d="M120.406 50.8516H129.354V51.5239H120.406V50.8516Z" fill="#AFAFAF"/>
    <path d="M120.406 53.6631H129.354V54.3354H120.406V53.6631Z" fill="#AFAFAF"/>
    <path d="M120.406 55.0684H129.354V55.7407H120.406V55.0684Z" fill="#AFAFAF"/>
    <path d="M120.406 56.4976H129.354V57.1699H120.406V56.4976Z" fill="#AFAFAF"/>
    <path d="M120.406 57.9033H129.354V58.5757H120.406V57.9033Z" fill="#AFAFAF"/>
    <path d="M120.406 59.3086H129.354V59.9809H120.406V59.3086Z" fill="#AFAFAF"/>
    <path d="M120.406 60.7144H129.354V61.3867H120.406V60.7144Z" fill="#AFAFAF"/>
    <path d="M120.406 62.1196H129.354V62.792H120.406V62.1196Z" fill="#AFAFAF"/>
    <path d="M120.406 63.5488H129.354V64.2212H120.406V63.5488Z" fill="#AFAFAF"/>
    <path d="M109.676 49.4458H118.625V50.1181H109.676V49.4458Z" fill="#AFAFAF"/>
    <path d="M109.676 50.8516H118.625V51.5239H109.676V50.8516Z" fill="#AFAFAF"/>
    <path d="M109.676 52.2573H118.625V52.9297H109.676V52.2573Z" fill="#AFAFAF"/>
    <path d="M109.676 53.6631H118.625V54.3354H109.676V53.6631Z" fill="#AFAFAF"/>
    <path d="M109.676 55.0684H118.625V55.7407H109.676V55.0684Z" fill="#AFAFAF"/>
    <path d="M109.676 56.4976H118.625V57.1699H109.676V56.4976Z" fill="#AFAFAF"/>
    <path d="M109.676 57.9033H118.625V58.5757H109.676V57.9033Z" fill="#AFAFAF"/>
    <path d="M109.676 59.3086H118.625V59.9809H109.676V59.3086Z" fill="#AFAFAF"/>
    <path d="M109.676 60.7144H118.625V61.3867H109.676V60.7144Z" fill="#AFAFAF"/>
    <path d="M109.676 62.1196H118.625V62.792H109.676V62.1196Z" fill="#AFAFAF"/>
    <path d="M109.676 63.5488H118.625V64.2212H109.676V63.5488Z" fill="#AFAFAF"/>
    <path d="M84.2584 41.1533H103.937V64.2167H84.2584V41.1533Z" fill="#CDCDCD"/>
    <path d="M85.1019 44.7842L81.4708 51.8356V48.3216L85.1019 44.7842Z" fill="black"/>
    <path d="M80.4166 39.7004L79.5966 40.7312C79.3015 41.1019 79.1075 41.5428 79.0336 42.0109C78.9597 42.4789 79.0084 42.9582 79.175 43.4018L81.4473 49.4458L85.7812 43.9406C86.1488 43.4787 86.3896 42.929 86.48 42.3457C86.5703 41.7623 86.5072 41.1655 86.2966 40.614V40.614C86.0886 40.0429 85.7311 39.5381 85.2614 39.1522C84.7917 38.7663 84.2271 38.5135 83.6265 38.4202C83.0258 38.3268 82.4112 38.3964 81.8466 38.6216C81.2819 38.8468 80.7881 39.2193 80.4166 39.7004V39.7004Z" fill="#FFBAA6"/>
    <path d="M133.009 39.7004L133.829 40.7312C134.118 41.105 134.308 41.5457 134.382 42.0125C134.456 42.4792 134.41 42.9571 134.251 43.4018L131.978 49.4458L127.644 43.9406C127.277 43.4787 127.036 42.929 126.946 42.3457C126.855 41.7623 126.918 41.1655 127.129 40.614V40.614C127.337 40.0429 127.695 39.5381 128.164 39.1522C128.634 38.7663 129.198 38.5135 129.799 38.4202C130.4 38.3268 131.014 38.3964 131.579 38.6216C132.144 38.8468 132.637 39.2193 133.009 39.7004V39.7004Z" fill="#FFBAA6"/>
    <path d="M112.464 5.35693H108.13V20.959H109.934C111.189 20.959 112.393 20.4604 113.28 19.573C114.167 18.6855 114.666 17.4819 114.666 16.2268V7.55902C114.666 6.97499 114.434 6.41488 114.021 6.00191C113.608 5.58894 113.048 5.35693 112.464 5.35693V5.35693Z" fill="black"/>
    <path d="M97.307 1H108.107C109.194 1 110.237 1.43193 111.005 2.20076C111.774 2.96959 112.206 4.01235 112.206 5.09964V12.6664H97.307C96.8489 12.671 96.3921 12.6159 95.9482 12.5024C94.5623 12.1667 93.3473 11.3349 92.533 10.1642C91.7186 8.99351 91.3614 7.56509 91.5287 6.14888C91.6959 4.73268 92.3762 3.42682 93.4409 2.47811C94.5056 1.5294 95.8809 1.00357 97.307 1V1Z" fill="black"/>
    <path d="M101.875 8.49658V8.87141C101.872 9.37065 101.968 9.86555 102.158 10.3274C102.347 10.7892 102.627 11.2088 102.98 11.5619C103.333 11.9149 103.752 12.1943 104.214 12.384C104.676 12.5736 105.171 12.6696 105.67 12.6665H110.309C110.812 12.6665 111.295 12.8664 111.651 13.2223C112.006 13.5781 112.206 14.0608 112.206 14.564V15.9462C112.209 16.2374 112.155 16.5262 112.045 16.7961C111.936 17.066 111.774 17.3115 111.57 17.5185C111.365 17.7255 111.121 17.8898 110.852 18.0019C110.584 18.114 110.295 18.1717 110.004 18.1717H107.029V20.0693C107.029 23.1616 104.499 25.7619 101.383 25.7151C99.9331 25.6785 98.5542 25.0782 97.5395 24.0415C96.5247 23.0049 95.9539 21.6136 95.9483 20.163V8.49658H101.875Z" fill="#FFBAA6"/>
    <path d="M109.723 17.75H103.703V27.6594C103.703 28.0532 103.78 28.4431 103.931 28.8069C104.081 29.1707 104.302 29.5013 104.581 29.7797C104.859 30.0582 105.19 30.2791 105.554 30.4297C105.917 30.5804 106.307 30.658 106.701 30.658C107.097 30.6611 107.489 30.5858 107.856 30.4365C108.222 30.2872 108.556 30.0668 108.837 29.7881C109.118 29.5093 109.341 29.1777 109.493 28.8124C109.645 28.447 109.723 28.0552 109.723 27.6594V17.75Z" fill="#FFBAA6"/>
    <path d="M107.006 20.8188C106.725 25.4573 104.874 27.308 103.703 28.0342V25.2465C104.593 24.8629 105.367 24.2519 105.947 23.4748C106.526 22.6976 106.892 21.7817 107.006 20.8188V20.8188Z" fill="black"/>
    <path d="M105.6 13.2521V12.5024H107.029V20.1629C107.029 21.6314 106.447 23.04 105.411 24.0806C104.375 25.1211 102.969 25.7088 101.5 25.715V25.715C100.028 25.715 98.6157 25.13 97.5745 24.0888C96.5333 23.0476 95.9483 21.6354 95.9483 20.1629V19.2493H99.6028C101.193 19.2493 102.719 18.6174 103.844 17.4927C104.968 16.368 105.6 14.8426 105.6 13.2521V13.2521Z" fill="black"/>
    <path d="M-0.402187 121.277C-18.9577 121.277 -34 106.235 -34 87.6794C-34 69.1238 -18.9577 54.0815 -0.402187 54.0815C18.1534 54.0815 33.1956 69.1238 33.1956 87.6794C33.1956 106.235 18.1534 121.277 -0.402187 121.277Z" fill="#235973"/>
    <path d="M46.4416 56.3984C47.0382 56.3984 47.6289 56.521 48.1796 56.7593C48.7303 56.9975 49.2301 57.3465 49.6502 57.7863C50.0702 58.2261 50.4023 58.7479 50.627 59.3216C50.8518 59.8953 50.9649 60.5095 50.9598 61.1288V67.9839H41.6916L41.9233 60.9685C41.9631 59.7488 42.4555 58.5923 43.2975 57.7406C44.1395 56.889 45.266 56.4081 46.4416 56.3984V56.3984Z" fill="#FFAB79"/>
    <path d="M-21.7539 113.336L-7.71011 76.0077C-6.83413 73.6565 -5.26312 71.629 -3.20678 70.1956C-1.15043 68.7623 1.29343 67.9914 3.79857 67.9858H22.8321C24.4666 67.9556 26.0877 68.2859 27.5805 68.9532C29.0572 69.6922 30.3393 70.7694 31.3228 72.0975L40.8195 85.5211L41.3023 67.9858H50.96V99.8718C50.96 105.798 43.5156 108.418 39.8135 103.742L32.6507 94.6314L26.494 86.8513L14.7439 117.851C11.9177 119.244 8.9108 120.235 5.81058 120.793H5.64961C3.74866 121.118 1.82361 121.279 -0.104723 121.277C-2.18298 121.273 -4.25678 121.084 -6.30171 120.713H-6.50291C-6.54315 120.713 -6.58339 120.713 -6.58339 120.672H-6.70411L-7.66986 120.471C-9.74452 119.986 -11.7663 119.298 -13.7059 118.415L-14.7521 121.237H-24.7317L-21.7539 113.336ZM3.8388 121.075L2.39017 121.237L3.8388 121.075ZM5.36792 120.874L4.28143 121.035L5.36792 120.874Z" fill="#E64415"/>
    <path d="M18.109 39.4062H15.7C14.1948 39.4063 12.7513 39.9878 11.6869 41.0229C10.6226 42.0581 10.0247 43.4621 10.0247 44.926V54.8535H17.3332L19.2931 49.6515L18.109 39.4062Z" fill="black"/>
    <path d="M22.3825 58.4118L14.9266 56.3984L9.54856 70.3307C8.48926 72.9883 10.4042 75.3238 13.1747 74.8809C14.0216 74.7148 14.8141 74.345 15.4821 73.8042C16.1501 73.2634 16.6729 72.5683 17.0045 71.7803L22.3825 58.4118Z" fill="#FFAB79"/>
    <path d="M18.5208 67.3883C16.9805 66.1341 16.1906 64.1112 16.5066 61.8052C16.5066 61.8052 15.4007 66.8219 17.4149 70.3012L18.5208 67.3883Z" fill="black"/>
    <path d="M9.30799 54.2021L9.42986 53.5534C9.57283 52.7767 9.98485 52.075 10.5938 51.571C11.2028 51.067 11.97 50.7927 12.7611 50.7962H15.0768V46.9037C15.0768 44.5057 16.0312 42.2058 17.7302 40.5101C19.4292 38.8144 21.7335 37.8618 24.1362 37.8618C26.5389 37.8618 28.8432 38.8144 30.5422 40.5101C32.2412 42.2058 33.1956 44.5057 33.1956 46.9037V60.4868C33.1956 62.8849 32.2412 65.1847 30.5422 66.8804C28.8432 68.5761 26.5389 69.5287 24.1362 69.5287V69.5287C21.7335 69.5287 19.4292 68.5761 17.7302 66.8804C16.0312 65.1847 15.0768 62.8849 15.0768 60.4868V58.1757H12.558C12.0692 58.1661 11.5883 58.0505 11.1487 57.837C10.7091 57.6235 10.3213 57.3171 10.0122 56.9391C9.703 56.5611 9.47989 56.1206 9.3583 55.648C9.23671 55.1753 9.21954 54.682 9.30799 54.2021Z" fill="#FFAB79"/>
    <path d="M32.7115 35.9297C32.9641 35.7245 33.1345 35.4375 33.1923 35.1198C33.2487 34.809 33.4132 34.5272 33.6574 34.3228C33.9017 34.1185 34.2104 34.0044 34.5307 34C35.3567 33.9972 36.1731 34.1748 36.9213 34.5199C37.6695 34.865 38.3309 35.3691 38.8582 35.996C39.3855 36.623 39.7654 37.3572 39.9709 38.1461C40.1764 38.935 40.2022 39.7589 40.0466 40.5588C39.7507 42.1899 38.8806 43.6657 37.5898 44.7264C36.2989 45.7871 34.6698 46.3648 32.9895 46.3578H19.3597L19.0845 47.864C18.932 48.7482 18.4658 49.5493 17.7698 50.1229C17.0739 50.6964 16.194 51.0045 15.289 50.9917H13.1141L13.9747 46.3578H13.8865L15.2249 39.2391C15.3789 38.3885 15.8347 37.6196 16.5109 37.0701C17.1871 36.5206 18.0396 36.2262 18.9157 36.2396H31.8133C32.1405 36.2447 32.4589 36.1348 32.7115 35.9297Z" fill="black"/>
    <circle cx="313.668" cy="25.3323" r="42.3323" fill="#235973"/>
    <path d="M293.487 57.4685L272.524 84.5266L281.684 91.6375L300.186 67.8115H316.682C317.765 67.8115 318.838 67.5954 319.839 67.1753C320.839 66.7553 321.749 66.1397 322.514 65.3637C323.28 64.5876 323.888 63.6663 324.302 62.6523C324.717 61.6383 324.93 60.5515 324.93 59.454V55.7139H297.087C296.395 55.7135 295.712 55.871 295.089 56.1748C294.466 56.4786 293.918 56.9207 293.487 57.4685Z" fill="#8DD5FF"/>
    <path d="M314.546 14.8808L312.348 9.52637L305.565 10.3933H305.517V15.7987H298.59C297.057 15.7987 295.587 16.4488 294.503 17.606C293.419 18.7632 292.81 20.3326 292.81 21.9691V22.1221C292.81 23.7633 293.418 25.3381 294.5 26.5034C295.583 27.6686 297.053 28.33 298.59 28.3435H317.364C318.922 28.3435 320.417 27.6827 321.519 26.5064C322.621 25.3301 323.24 23.7347 323.24 22.0711C323.24 20.4076 322.621 18.8122 321.519 17.6359C320.417 16.4596 318.922 15.7987 317.364 15.7987H315.883C315.601 15.7974 315.326 15.7103 315.089 15.5477C314.852 15.3851 314.664 15.1538 314.546 14.8808Z" fill="black"/>
    <path d="M318.552 29.832C317.901 28.3709 316.845 27.13 315.509 26.2589C314.174 25.3878 312.617 24.9235 311.025 24.9219H299.165C298.232 24.9252 297.312 25.1417 296.474 25.555C295.636 25.9684 294.903 26.5679 294.329 27.3081L285.844 38.138L279.139 24.9219H272.524L281.739 45.7556C282.022 46.4091 282.468 46.9777 283.035 47.4062C283.601 47.8347 284.268 48.1085 284.97 48.2009C285.673 48.2933 286.388 48.2012 287.044 47.9335C287.701 47.6658 288.278 47.2317 288.718 46.6733L295.561 37.8626L295.926 41.9468C295.989 42.912 296.248 43.854 296.687 44.7143C297.127 45.5747 297.737 46.3352 298.48 46.9487L302.312 55.7135H330.002L318.552 29.832Z" fill="#E64415"/>
    <path d="M305.082 91.6377H299.572L300.825 95.059H306.334L305.082 91.6377Z" fill="white"/>
    <path d="M309.15 99.0201L307.312 95.0586H301.092L300.149 96.094C299.418 96.8529 298.466 97.3858 297.416 97.6246L289.781 99.3352C289.709 99.3547 289.642 99.389 289.585 99.4357C289.528 99.4823 289.483 99.5402 289.451 99.6053V99.6053C289.43 99.6708 289.424 99.7402 289.435 99.8081C289.445 99.8761 289.472 99.9408 289.513 99.9972C289.554 100.054 289.608 100.101 289.671 100.134C289.734 100.168 289.804 100.187 289.875 100.191H309.716L309.15 99.0201Z" fill="#813600"/>
    <path d="M276.201 88.2158L272.524 93.01L278.652 95.0584L280.977 92.0076L276.201 88.2158Z" fill="white"/>
    <path d="M272.413 93.3481L272.128 93.6927C271.271 94.7699 270.136 95.5722 268.857 96.0064L259.281 99.3046C259.187 99.3046 259.092 99.4031 259.044 99.5508C259.012 99.6181 258.997 99.6928 259 99.7678C259.004 99.8429 259.025 99.9159 259.063 99.9799C259.101 100.044 259.154 100.097 259.217 100.134C259.28 100.171 259.351 100.19 259.424 100.191H275.873L279.286 95.6618L272.413 93.3481Z" fill="#813600"/>
    <path d="M333.383 64.2667L330.045 55.3967L326.15 50.5815L323.24 55.3967L327.092 64.2667H333.383Z" fill="#E64415"/>
    <path d="M333.781 64.2671H326.621L328.399 67.2558C328.482 67.3839 328.603 67.4914 328.751 67.5674C328.899 67.6434 329.068 67.6851 329.242 67.6884H340.145C339.588 66.6645 338.691 65.7974 337.562 65.1906C336.433 64.5839 335.121 64.2633 333.781 64.2671V64.2671Z" fill="#FFAB79"/>
    <path d="M305.644 91.6377H299.572L306.334 93.3483L305.644 91.6377Z" fill="black"/>
    <path d="M275.905 88.2158L279.81 93.3478L280.977 91.9057L275.905 88.2158Z" fill="black"/>
    <path d="M301.263 14.6582H306.335V23.9091C306.335 24.6314 306.067 25.3242 305.592 25.835C305.116 26.3458 304.471 26.6327 303.799 26.6327V26.6327C303.126 26.6327 302.481 26.3458 302.006 25.835C301.53 25.3242 301.263 24.6314 301.263 23.9091V14.6582Z" fill="#FFAB79"/>
    <path d="M304.62 18.0791C304.62 18.0791 305.145 23.9284 301.263 24.9217V23.2662C302.23 22.821 303.057 22.0981 303.651 21.1807C304.245 20.2632 304.581 19.1882 304.62 18.0791V18.0791Z" fill="black"/>
    <path d="M308.025 9.67416V16.0368H305.39V18.2479C305.396 18.8976 305.261 19.5421 304.991 20.144C304.722 20.746 304.324 21.2936 303.82 21.7551C303.316 22.2166 302.716 22.583 302.056 22.833C301.395 23.083 300.686 23.2117 299.97 23.2116V23.2116C298.52 23.2116 297.128 22.6887 296.103 21.7578C295.077 20.8269 294.501 19.5644 294.501 18.2479V4.39453H302.257C303.019 4.39451 303.773 4.53139 304.476 4.79727C305.179 5.06314 305.817 5.45275 306.353 5.94361C306.889 6.43447 307.313 7.01684 307.6 7.65714C307.887 8.29744 308.031 8.98297 308.025 9.67416V9.67416Z" fill="#FFAB79"/>
    <path d="M311.36 10.4402L309.155 5.42554C308.933 4.93277 308.577 4.51577 308.129 4.22476C307.68 3.93374 307.159 3.78111 306.628 3.78523H305.847L305.433 2.66043C304.888 1.15831 303.904 -0.136929 302.614 -1.05045C301.324 -1.96396 299.79 -2.45176 298.22 -2.44797H293.074C291.711 -2.46195 290.395 -1.93827 289.402 -0.986329C288.409 -0.0343894 287.815 1.27218 287.744 2.66043C287.713 3.37536 287.824 4.08929 288.071 4.75911C288.318 5.42893 288.696 6.04075 289.181 6.55761C289.666 7.07446 290.249 7.48564 290.894 7.76632C291.54 8.04699 292.234 8.19134 292.936 8.19064H299.966L300.333 9.17483C300.555 9.77619 300.951 10.2949 301.467 10.6629C301.984 11.0309 302.598 11.231 303.228 11.2369H311.406L311.36 10.4402Z" fill="black"/>
    <path d="M306.945 16.3687H304.644V11.2367H306.945C307.68 11.2367 308.384 11.5071 308.904 11.9883C309.424 12.4695 309.716 13.1222 309.716 13.8027V13.8027C309.716 14.4832 309.424 15.1359 308.904 15.6171C308.384 16.0983 307.68 16.3687 306.945 16.3687V16.3687Z" fill="#FFAB79"/>
    <path d="M319.859 52.293L321.136 55.7143H323.24L319.859 52.293Z" fill="black"/>
    <path d="M303.025 55.714H286.803C285.833 55.7063 284.877 55.9467 284.023 56.413C283.168 56.8794 282.443 57.5568 281.914 58.3829C281.385 59.2089 281.068 60.157 280.994 61.14C280.919 62.1229 281.09 63.1091 281.488 64.0077L293.562 91.6375H306.335L292.257 59.458" fill="#8DD5FF"/>
    <path d="M297.882 72.9626L297.028 71.1094L292.81 76.2413L297.882 72.9626Z" fill="black"/>
    <path d="M270.869 15.3126L274.54 24.3623C274.605 24.5263 274.712 24.6663 274.849 24.7655C274.985 24.8648 275.144 24.9191 275.308 24.9221H280.557C280.627 24.9208 280.696 24.9006 280.758 24.8632C280.819 24.8259 280.871 24.7725 280.909 24.7079C280.947 24.6433 280.97 24.5694 280.975 24.4929C280.981 24.4163 280.969 24.3394 280.941 24.269L277.271 15.2193C277.216 15.0476 277.111 14.9002 276.972 14.7992C276.834 14.6983 276.669 14.6492 276.503 14.6596H271.253C271.183 14.6608 271.114 14.681 271.053 14.7184C270.992 14.7557 270.94 14.8091 270.902 14.8737C270.864 14.9383 270.841 15.0122 270.835 15.0888C270.829 15.1653 270.841 15.2422 270.869 15.3126Z" fill="#8DD5FF"/>
    <path d="M273.878 18.0794C273.372 18.0746 272.872 18.1932 272.425 18.4243C271.979 18.6554 271.599 18.9915 271.323 19.4016C271.046 19.8117 270.881 20.2825 270.842 20.7705C270.804 21.2586 270.893 21.7482 271.103 22.194L272.347 24.9217H279.286L276.558 19.6975C276.32 19.2077 275.94 18.7947 275.465 18.5078C274.989 18.2208 274.439 18.0721 273.878 18.0794V18.0794Z" fill="#FFAB79"/>
</svg>
